<?xml version="1.0" standalone="no"?>
<!DOCTYPE svg PUBLIC "-//W3C//DTD SVG 20010904//EN"
 "http://www.w3.org/TR/2001/REC-SVG-20010904/DTD/svg10.dtd">
<svg version="1.0" xmlns="http://www.w3.org/2000/svg"
 width="700.000000pt" height="700.000000pt" viewBox="0 0 700.000000 700.000000"
 preserveAspectRatio="xMidYMid meet">
<metadata>
Created by potrace 1.11, written by Peter Selinger 2001-2013
</metadata>
<g transform="translate(0.000000,700.000000) scale(0.100000,-0.100000)"
fill="#000000" stroke="none">
<path d="M3359 6923 c-85 -42 -248 -122 -364 -178 -200 -98 -400 -196 -980
-480 -143 -70 -345 -169 -450 -220 -104 -51 -343 -168 -530 -260 -187 -91
-420 -205 -517 -253 l-177 -86 2 -1941 2 -1940 225 -112 c216 -107 361 -178
990 -486 543 -266 726 -355 985 -482 143 -70 388 -190 545 -267 157 -77 313
-153 348 -170 35 -17 69 -31 75 -31 11 0 111 48 762 368 154 76 375 184 490
240 116 57 345 169 510 250 165 81 388 190 495 242 107 53 346 170 530 260
184 91 345 169 358 174 12 5 22 12 23 16 0 11 0 3743 0 3819 -1 61 -1 62 -38
79 -21 10 -171 83 -333 163 -399 196 -759 372 -1035 507 -126 62 -342 168
-480 235 -137 67 -349 171 -470 230 -121 59 -310 152 -420 206 -110 54 -202
99 -205 99 -3 1 -46 22 -96 47 l-91 47 -154 -76z"/>
</g>
</svg>
