<?xml version="1.0" encoding="utf-8"?>
<!-- Generator: Adobe Illustrator 16.0.0, SVG Export Plug-In . SVG Version: 6.00 Build 0)  -->
<!DOCTYPE svg PUBLIC "-//W3C//DTD SVG 1.1//EN" "http://www.w3.org/Graphics/SVG/1.1/DTD/svg11.dtd">
<svg version="1.1" id="Layer_1" xmlns="http://www.w3.org/2000/svg" xmlns:xlink="http://www.w3.org/1999/xlink" x="0px" y="0px"
	 width="1280px" height="720px" viewBox="0 0 1280 720" enable-background="new 0 0 1280 720" xml:space="preserve">
<polyline fill="none" stroke="#222222" stroke-miterlimit="10" points="58.9,142.73 58.9,92.73 15.59,67.73 58.89,92.73 
	102.2,67.73 "/>
<polygon fill="none" stroke="#222222" stroke-miterlimit="10" points="102.2,67.73 102.2,117.73 58.89,142.73 15.59,117.73 
	15.59,67.73 58.9,42.73 "/>
<polyline fill="none" stroke="#222222" stroke-miterlimit="10" points="188.8,217.73 188.8,167.73 145.5,142.73 188.8,167.73 
	232.1,142.73 "/>
<polygon fill="none" stroke="#222222" stroke-miterlimit="10" points="232.1,142.73 232.1,192.73 188.8,217.73 145.5,192.73 
	145.5,142.73 188.8,117.73 "/>
<polyline fill="none" stroke="#222222" stroke-miterlimit="10" points="102.19,217.73 102.19,167.73 58.89,142.73 102.19,167.73 
	145.5,142.73 "/>
<polygon fill="none" stroke="#222222" stroke-miterlimit="10" points="145.5,142.73 145.5,192.73 102.19,217.73 58.89,192.73 
	58.89,142.73 102.19,117.73 "/>
<polyline fill="none" stroke="#222222" stroke-miterlimit="10" points="275.4,367.73 275.4,317.73 232.1,292.73 275.4,317.73 
	318.7,292.73 "/>
<polygon fill="none" stroke="#222222" stroke-miterlimit="10" points="318.7,292.73 318.7,342.73 275.4,367.73 232.1,342.73 
	232.1,292.73 275.4,267.73 "/>
<polyline fill="none" stroke="#222222" stroke-miterlimit="10" points="102.19,367.73 102.19,317.73 58.89,292.73 102.19,317.73 
	145.5,292.73 "/>
<polygon fill="none" stroke="#222222" stroke-miterlimit="10" points="145.5,292.73 145.5,342.73 102.19,367.73 58.89,342.73 
	58.89,292.73 102.19,267.73 "/>
<polyline fill="none" stroke="#222222" stroke-miterlimit="10" points="188.8,367.73 188.8,317.73 145.5,292.73 188.8,317.73 
	232.1,292.73 "/>
<polygon fill="none" stroke="#222222" stroke-miterlimit="10" points="232.1,292.73 232.1,342.73 188.8,367.73 145.5,342.73 
	145.5,292.73 188.8,267.73 "/>
<polyline fill="none" stroke="#222222" stroke-miterlimit="10" points="362,367.73 362,317.73 318.7,292.73 362,317.73 
	405.31,292.73 "/>
<polygon fill="none" stroke="#222222" stroke-miterlimit="10" points="405.31,292.73 405.31,342.73 362,367.73 318.7,342.73 
	318.7,292.73 362,267.73 "/>
<polyline fill="none" stroke="#222222" stroke-miterlimit="10" points="232.1,592.96 232.1,542.96 188.8,517.96 232.1,542.96 
	275.4,517.96 "/>
<polygon fill="none" stroke="#222222" stroke-miterlimit="10" points="275.4,517.96 275.4,567.96 232.1,592.96 188.8,567.96 
	188.8,517.96 232.1,492.96 "/>
<polyline fill="none" stroke="#222222" stroke-miterlimit="10" points="318.7,442.73 318.7,392.73 275.4,367.73 318.7,392.73 
	362.01,367.73 "/>
<polygon fill="none" stroke="#222222" stroke-miterlimit="10" points="362.01,367.73 362.01,417.73 318.7,442.73 275.4,417.73 
	275.4,367.73 318.7,342.73 "/>
<polyline fill="none" stroke="#222222" stroke-miterlimit="10" points="318.7,492.96 275.4,517.96 275.4,567.96 318.7,542.96 
	318.7,492.96 275.4,467.96 232.1,492.96 275.4,517.96 "/>
<polyline fill="none" stroke="#222222" stroke-miterlimit="10" points="188.8,417.73 232.1,392.73 232.1,342.73 188.8,367.73 
	188.8,417.73 145.5,392.73 145.5,342.73 188.8,367.73 "/>
<polyline fill="none" stroke="#222222" stroke-miterlimit="10" points="145.5,292.73 188.8,267.73 188.8,217.73 145.5,242.73 
	145.5,292.73 102.19,267.73 102.19,217.73 145.5,242.73 "/>
<polyline fill="none" stroke="#222222" stroke-miterlimit="10" points="1097.31,293.11 1140.61,268.11 1140.61,218.11 
	1097.31,243.11 1097.31,293.11 1054.01,268.11 1054.01,218.11 1097.31,243.11 "/>
<polygon fill="#222222" stroke="#222222" stroke-miterlimit="10" points="58.89,142.73 58.89,192.73 102.2,217.73 102.2,167.73 "/>
<polygon fill="#222222" stroke="#222222" stroke-miterlimit="10" points="145.5,342.73 145.5,392.73 188.8,417.73 188.8,367.73 "/>
<polygon fill="#222222" stroke="#222222" stroke-miterlimit="10" points="102.2,217.23 102.2,267.23 145.5,292.23 145.5,242.23 "/>
<polygon fill="#222222" stroke="#222222" stroke-miterlimit="10" points="188.8,517.96 188.8,567.96 232.1,592.96 232.1,542.96 "/>
<polyline fill="none" stroke="#222222" stroke-miterlimit="10" points="1313.82,468.39 1313.82,418.39 1270.52,393.39 
	1313.82,418.39 1357.12,393.39 "/>
<polygon fill="none" stroke="#222222" stroke-miterlimit="10" points="1357.12,393.39 1357.12,443.39 1313.82,468.39 
	1270.52,443.39 1270.52,393.39 1313.82,368.39 "/>
<polyline fill="none" stroke="#222222" stroke-miterlimit="10" points="318.7,492.73 362,467.73 362,417.73 318.7,442.73 
	318.7,492.73 275.4,467.73 275.4,417.73 318.7,442.73 "/>
<path fill="none" stroke="#222222" stroke-miterlimit="10" d="M275.4,567.73l43.3,25L275.4,567.73z"/>
<polygon fill="none" stroke="#222222" stroke-miterlimit="10" points="318.7,592.73 318.7,642.73 275.4,617.73 275.4,567.73 
	318.7,542.73 362,567.73 "/>
<polyline fill="none" stroke="#222222" stroke-miterlimit="10" points="1054.01,468.48 1054.01,418.48 1010.71,393.48 
	1054.01,418.48 1097.31,393.48 "/>
<polygon fill="none" stroke="#222222" stroke-miterlimit="10" points="1097.31,393.48 1097.31,443.48 1054.01,468.48 
	1010.71,443.48 1010.71,393.48 1054.01,368.48 "/>
<polyline fill="none" stroke="#222222" stroke-miterlimit="10" points="1097.31,393.48 1097.31,343.48 1054.01,318.48 
	1097.31,343.48 1140.62,318.48 "/>
<polygon fill="none" stroke="#222222" stroke-miterlimit="10" points="1140.62,318.48 1140.62,368.48 1097.31,393.48 
	1054.01,368.48 1054.01,318.48 1097.31,293.48 "/>
<polyline fill="none" stroke="#222222" stroke-miterlimit="10" points="1140.61,468.39 1140.61,418.39 1097.31,393.39 
	1140.61,418.39 1183.92,393.39 "/>
<polygon fill="none" stroke="#222222" stroke-miterlimit="10" points="1183.92,393.39 1183.92,443.39 1140.61,468.39 
	1097.31,443.39 1097.31,393.39 1140.61,368.39 "/>
<polyline fill="none" stroke="#222222" stroke-miterlimit="10" points="1227.22,468.39 1227.22,418.39 1183.92,393.39 
	1227.22,418.39 1270.52,393.39 "/>
<polygon fill="none" stroke="#222222" stroke-miterlimit="10" points="1270.52,393.39 1270.52,443.39 1227.22,468.39 
	1183.92,443.39 1183.92,393.39 1227.22,368.39 "/>
<polyline fill="none" stroke="#222222" stroke-miterlimit="10" points="1270.52,543.12 1270.52,493.12 1227.22,468.12 
	1270.52,493.12 1313.82,468.12 "/>
<polygon fill="none" stroke="#222222" stroke-miterlimit="10" points="1313.82,468.12 1313.82,518.12 1270.52,543.12 
	1227.22,518.12 1227.22,468.12 1270.52,443.12 "/>
<path fill="none" stroke="#222222" stroke-miterlimit="10" d="M1010.71,293.48l43.3,25L1010.71,293.48z"/>
<polygon fill="none" stroke="#222222" stroke-miterlimit="10" points="1054.01,318.48 1054.01,368.48 1010.71,343.48 
	1010.71,293.48 1054.01,268.48 1097.31,293.48 "/>
<polyline fill="none" stroke="#222222" stroke-miterlimit="10" points="1270.52,393.48 1270.52,343.48 1227.22,318.48 
	1270.52,343.48 1313.82,318.48 "/>
<polygon fill="none" stroke="#222222" stroke-miterlimit="10" points="1313.82,318.48 1313.82,368.48 1270.52,393.48 
	1227.22,368.48 1227.22,318.48 1270.52,293.48 "/>
<polyline fill="none" stroke="#222222" stroke-miterlimit="10" points="362,667.96 362,617.96 318.7,592.96 362,617.96 
	405.3,592.96 "/>
<polygon fill="none" stroke="#222222" stroke-miterlimit="10" points="405.3,592.96 405.3,642.96 362,667.96 318.7,642.96 
	318.7,592.96 362,567.96 "/>
<polyline fill="none" stroke="#222222" stroke-miterlimit="10" points="318.7,742.73 318.7,692.73 275.4,667.73 318.7,692.73 
	362,667.73 "/>
<polygon fill="none" stroke="#222222" stroke-miterlimit="10" points="362,667.73 362,717.73 318.7,742.73 275.4,717.73 
	275.4,667.73 318.7,642.73 "/>
<polyline fill="none" stroke="#222222" stroke-miterlimit="10" points="448.61,667.96 448.61,617.96 405.31,592.96 448.61,617.96 
	491.91,592.96 "/>
<polygon fill="none" stroke="#222222" stroke-miterlimit="10" points="491.91,592.96 491.91,642.96 448.61,667.96 405.31,642.96 
	405.31,592.96 448.61,567.96 "/>
<polyline fill="none" stroke="#222222" stroke-miterlimit="10" points="491.91,742.73 491.91,692.73 448.61,667.73 491.91,692.73 
	535.21,667.73 "/>
<polygon fill="none" stroke="#222222" stroke-miterlimit="10" points="535.21,667.73 535.21,717.73 491.91,742.73 448.61,717.73 
	448.61,667.73 491.91,642.73 "/>
<polyline fill="none" stroke="#222222" stroke-miterlimit="10" points="1227.21,618.12 1227.21,568.12 1183.91,543.12 
	1227.21,568.12 1270.52,543.12 "/>
<polygon fill="none" stroke="#222222" stroke-miterlimit="10" points="1270.52,543.12 1270.52,593.12 1227.21,618.12 
	1183.91,593.12 1183.91,543.12 1227.21,518.12 "/>
<polyline fill="none" stroke="#222222" stroke-miterlimit="10" points="1140.61,618.12 1140.61,568.12 1097.31,543.12 
	1140.61,568.12 1183.92,543.12 "/>
<polygon fill="none" stroke="#222222" stroke-miterlimit="10" points="1183.92,543.12 1183.92,593.12 1140.61,618.12 
	1097.31,593.12 1097.31,543.12 1140.61,518.12 "/>
<path fill="none" stroke="#222222" stroke-miterlimit="10" d="M1054.01,518.12l43.3,25L1054.01,518.12z"/>
<polygon fill="none" stroke="#222222" stroke-miterlimit="10" points="1097.31,543.12 1097.31,593.12 1054.01,568.12 
	1054.01,518.12 1097.31,493.12 1140.61,518.12 "/>
<polyline fill="none" stroke="#222222" stroke-miterlimit="10" points="102.19,542.84 102.19,492.84 58.89,467.84 102.19,492.84 
	145.5,467.84 "/>
<polygon fill="none" stroke="#222222" stroke-miterlimit="10" points="145.5,467.84 145.5,517.84 102.19,542.84 58.89,517.84 
	58.89,467.84 102.19,442.84 "/>
<polyline fill="none" stroke="#222222" stroke-miterlimit="10" points="15.59,542.61 15.59,492.61 -27.71,467.61 15.59,492.61 
	58.9,467.61 "/>
<polygon fill="none" stroke="#222222" stroke-miterlimit="10" points="58.9,467.61 58.9,517.61 15.59,542.61 -27.71,517.61 
	-27.71,467.61 15.59,442.61 "/>
<polyline fill="none" stroke="#222222" stroke-miterlimit="10" points="-27.71,617.96 -27.71,567.96 -71.01,542.96 -27.71,567.96 
	15.59,542.96 "/>
<polygon fill="none" stroke="#222222" stroke-miterlimit="10" points="15.59,542.96 15.59,592.96 -27.71,617.96 -71.01,592.96 
	-71.01,542.96 -27.71,517.96 "/>
<polyline fill="none" stroke="#222222" stroke-miterlimit="10" points="1097.31,242.73 1097.31,192.73 1054.01,167.73 
	1097.31,192.73 1140.62,167.73 "/>
<polygon fill="none" stroke="#222222" stroke-miterlimit="10" points="1140.62,167.73 1140.62,217.73 1097.31,242.73 
	1054.01,217.73 1054.01,167.73 1097.31,142.73 "/>
<polyline fill="none" stroke="#222222" stroke-miterlimit="10" points="1054.01,167.73 1054.01,117.73 1010.71,92.73 
	1054.01,117.73 1097.31,92.73 "/>
<polygon fill="none" stroke="#222222" stroke-miterlimit="10" points="1097.31,92.73 1097.31,142.73 1054.01,167.73 1010.71,142.73 
	1010.71,92.73 1054.01,67.73 "/>
<polygon fill="#222222" stroke="#222222" stroke-miterlimit="10" points="448.61,667.73 448.61,717.73 491.91,742.73 491.91,692.73 
	"/>
<polygon fill="#222222" stroke="#222222" stroke-miterlimit="10" points="1054.01,167.73 1054.01,217.73 1097.31,242.73 
	1097.31,192.73 "/>
<polygon fill="#222222" stroke="#222222" stroke-miterlimit="10" points="1010.71,393.48 1010.71,443.48 1054.01,468.48 
	1054.01,418.48 "/>
<polygon fill="#222222" stroke="#222222" stroke-miterlimit="10" points="1097.31,393.48 1097.31,443.48 1140.62,468.48 
	1140.62,418.48 "/>
<polygon fill="#222222" stroke="#222222" stroke-miterlimit="10" points="1270.52,392.73 1270.52,442.73 1313.82,467.73 
	1313.82,417.73 "/>
<polygon fill="#222222" stroke="#222222" stroke-miterlimit="10" points="1097.31,542.73 1097.31,592.73 1140.62,617.73 
	1140.62,567.73 "/>
<polygon fill="#222222" stroke="#222222" stroke-miterlimit="10" points="318.7,292.73 318.7,342.73 362.01,367.73 362.01,317.73 
	"/>
<polygon fill="#222222" stroke="#222222" stroke-miterlimit="10" points="-27.71,468.12 -27.71,518.12 15.6,543.12 15.6,493.12 "/>
<path fill="none" stroke="#222222" stroke-miterlimit="10" d="M967.41,67.73l43.3,25L967.41,67.73z"/>
<polygon fill="none" stroke="#222222" stroke-miterlimit="10" points="1010.71,92.73 1010.71,142.73 967.41,117.73 967.41,67.73 
	1010.71,42.73 1054.01,67.73 "/>
<polyline fill="none" stroke="#222222" stroke-miterlimit="10" points="967.41,67.73 967.41,17.73 924.11,-7.27 967.41,17.73 
	1010.71,-7.27 "/>
<polygon fill="none" stroke="#222222" stroke-miterlimit="10" points="1010.71,-7.27 1010.71,42.73 967.41,67.73 924.11,42.73 
	924.11,-7.27 967.41,-32.27 "/>
<polyline fill="none" stroke="#222222" stroke-miterlimit="10" points="1140.61,67.73 1097.31,92.73 1097.31,142.73 1140.61,117.73 
	1140.61,67.73 1097.31,42.73 1054.01,67.73 1097.31,92.73 "/>
<polyline fill="none" stroke="#222222" stroke-miterlimit="10" points="924.11,142.73 924.11,92.73 880.8,67.73 924.11,92.73 
	967.41,67.73 "/>
<polygon fill="none" stroke="#222222" stroke-miterlimit="10" points="967.41,67.73 967.41,117.73 924.11,142.73 880.8,117.73 
	880.8,67.73 924.11,42.73 "/>
<polyline fill="none" stroke="#222222" stroke-miterlimit="10" points="880.81,67.73 880.81,17.73 837.5,-7.27 880.8,17.73 
	924.11,-7.27 "/>
<polygon fill="none" stroke="#222222" stroke-miterlimit="10" points="924.11,-7.27 924.11,42.73 880.8,67.73 837.5,42.73 
	837.5,-7.27 880.81,-32.27 "/>
<polygon fill="#222222" stroke="#222222" stroke-miterlimit="10" points="924.11,-7.27 924.11,42.73 967.41,67.73 967.41,17.73 "/>
<polyline fill="none" stroke="#222222" stroke-miterlimit="10" points="232.1,742.73 232.1,692.73 188.8,667.73 232.1,692.73 
	275.4,667.73 "/>
<polygon fill="none" stroke="#222222" stroke-miterlimit="10" points="275.4,667.73 275.4,717.73 232.1,742.73 188.8,717.73 
	188.8,667.73 232.1,642.73 "/>
<polygon fill="#222222" stroke="#222222" stroke-miterlimit="10" points="188.8,667.73 188.8,717.73 232.1,742.73 232.1,692.73 "/>
</svg>
